:SAMPLES-PER-SECOND 30
:FULLY-SPECIFIED
:DEGREES
305
root  34.72860441 36.50785131 -14.76905102 8.179699898 -5.45377779 3.695681095
lowerback  -8.702500343 -1.209519982 -1.536120534
upperback  -4.048799992 -0.9439920187 -3.775880098
thorax  0.6490370035 -0.2760719955 -3.123960018
lowerneck  -9.111049652 -12.09309959 -8.915149689
upperneck  15.15190029 -16.55800056 9.769499779
head  7.733320236 -7.535309792 2.879349947
lclavicle  0 -4.497500157e-015 -2.743230041e-014
lhumerus  -49.41329956 30.46680069 61.54320145
lradius  0.007069340441 -6.507048965e-006 30.35790443
lwrist  4.824992743e-007 -3.790274832e-007 -28.69949913
lhand  -4.410347018e-031 -36.80820084 -10.72949982
lfingers  90 7.125020027 -90
lthumb  94.78452273 -25.5675149 100.9757892
rclavicle  0 -4.497500157e-015 -2.743230041e-014
rhumerus  -51.15879822 -31.91790199 -18.23599815
rradius  -5.16745672e-007 2.214343908e-008 118.2750015
rwrist  -2.867388866e-005 0.0111028729 172.7960968
rhand  -1.770623531e-031 4.333079815 -5.267119884
rfingers  -90 -7.125020027 -90
rthumb  -83.93193415 -10.48547424 -59.70908151
rfemur  -11.84816933 16.08217239 13.08153343
rtibia  -1.163834214 -1.00605011 20.85528946
rfoot  0.3582300842 -22.13112831 -35.64585495
rtoes  3.877326673 19.635675 -101.4030224
lfemur  -6.753649235 -16.98869896 -20.98875237
ltibia  3.323542833 -1.1849612 13.5665617
lfoot  0.7852438092 -22.53227043 37.56732941
ltoes  -8.547567483 -18.14945855 -115.7577042
306
root  34.73238307 36.50758698 -14.77248425 8.172588348 -5.489429951 3.693022728
lowerback  -8.741149902 -1.226559997 -1.487429857
upperback  -4.039720058 -0.9721009731 -3.747600079
thorax  0.6780509949 -0.2917099893 -3.125309944
lowerneck  -9.243960381 -11.96030045 -8.902050018
upperneck  15.37559986 -16.37220001 9.722350121
head  7.806509972 -7.436920166 2.877160072
lclavicle  0 -4.497500157e-015 -2.743230041e-014
lhumerus  -49.41609955 30.47489929 61.62170029
lradius  0.007069340441 -6.507048965e-006 30.36601067
lwrist  4.824992743e-007 -3.790274832e-007 -28.67200089
lhand  -4.40946029e-031 -36.7928009 -10.68690014
lfingers  90 7.125020027 -90
lthumb  94.76832672 -25.52634129 100.9554259
rclavicle  0 -4.497500157e-015 -2.743230041e-014
rhumerus  -51.94889832 -31.7976017 -19.00829697
rradius  -5.16745672e-007 2.214343908e-008 118.3759995
rwrist  -2.867388866e-005 0.0111028729 172.7450867
rhand  -1.771272517e-031 4.601819992 -5.569429874
rfingers  -90 -7.125020027 -90
rthumb  -84.01712349 -10.23759334 -59.47347959
rfemur  -11.85512829 16.04769135 13.06774902
rtibia  -1.1607759 -1.019933581 20.85130501
rfoot  0.3373461962 -22.16056633 -35.6619873
rtoes  3.889144126 19.63342657 -101.4381913
lfemur  -6.837211609 -16.91371727 -20.9485836
ltibia  3.251957178 -1.184861779 13.68205738
lfoot  0.7891358137 -22.59420967 37.53990936
ltoes  -8.560305061 -18.14361291 -115.7986021
307
root  34.73618275 36.50764105 -14.77630795 8.176110268 -5.541604996 3.683356762
lowerback  -8.791230202 -1.238999963 -1.435260057
upperback  -4.01556015 -0.9943640232 -3.72529006
thorax  0.7290220261 -0.3048560023 -3.134649992
lowerneck  -9.366620064 -11.83409977 -8.88490963
upperneck  15.55539989 -16.19790077 9.699430466
head  7.866630077 -7.34373951 2.881969929
lclavicle  0 -4.497500157e-015 -2.743230041e-014
lhumerus  -49.4510994 30.56080055 61.62620163
lradius  0.007069340441 -6.507048965e-006 30.36600113
lwrist  4.824992743e-007 -3.790274832e-007 -28.8132
lhand  -4.411539904e-031 -36.82889938 -10.68379974
lfingers  90 7.125020027 -90
lthumb  94.78458383 -25.52196928 100.9937526
rclavicle  0 -4.497500157e-015 -2.743230041e-014
rhumerus  -52.70660019 -31.56940269 -19.85479546
rradius  -5.16745672e-007 2.214343908e-008 118.4570007
rwrist  -2.867388866e-005 0.0111028729 172.9720612
rhand  -1.771410377e-031 4.656889915 -5.684249878
rfingers  -90 -7.125020027 -90
rthumb  -84.06209884 -10.14144615 -59.42994643
rfemur  -11.87457085 16.08193588 13.05884266
rtibia  -1.157826185 -1.024551988 20.85058975
rfoot  0.366839081 -22.16104126 -35.58931351
rtoes  3.893521665 19.63259187 -101.4512199
lfemur  -6.928341866 -16.876894 -20.90290642
ltibia  3.174183846 -1.208431244 13.80396557
lfoot  0.7760999203 -22.59934616 37.50875473
ltoes  -8.582365106 -18.13346325 -115.8694627
308
root  34.74112383 36.50759599 -14.77908788 8.183418274 -5.584600925 3.67356348
lowerback  -8.833249092 -1.246159911 -1.408769965
upperback  -3.989389896 -1.007230043 -3.709340096
thorax  0.7784389853 -0.3128040135 -3.135179996
lowerneck  -9.517999649 -11.72439957 -8.818659782
upperneck  15.76420021 -16.04949951 9.650500298
head  7.937679768 -7.259779453 2.866139889
lclavicle  0 -4.497500157e-015 -2.743230041e-014
lhumerus  -49.44240189 30.63229942 61.63949966
lradius  0.007069340441 -6.507048965e-006 30.35250092
lwrist  4.824992743e-007 -3.790274832e-007 -28.92900085
lhand  -0 -36.90200043 -10.65149975
lfingers  90 7.125020027 -90
lthumb  94.81200627 -25.48770008 101.06903
rclavicle  0 -4.497500157e-015 -2.743230041e-014
rhumerus  -53.58720016 -31.39879799 -20.73330116
rradius  -5.16745672e-007 2.214343908e-008 118.4830017
rwrist  -2.867388866e-005 0.0111028729 173.1660461
rhand  -1.771934622e-031 4.860549927 -5.444180012
rfingers  -90 -7.125020027 -90
rthumb  -83.8843206 -10.35799415 -59.20826702
rfemur  -11.90476322 16.09287834 13.04808903
rtibia  -1.15355289 -1.033039331 20.86042786
rfoot  0.3775116205 -22.1814785 -35.53364563
rtoes  3.889037205 19.63344695 -101.4378731
lfemur  -6.960678101 -16.8133297 -20.88289261
ltibia  3.143477201 -1.167594314 13.8384552
lfoot  0.7942714691 -22.71373367 37.53974152
ltoes  -8.602598352 -18.1241254 -115.9344892
